<svg xmlns="http://www.w3.org/2000/svg" viewBox="0 -1000 1000 1000">
  <g transform="scale(1,-1) translate(0,-1000)">
    <path d="M156 774H625Q661 774 686.0 748.5Q711 723 711 687V219Q711 183 686.0 157.5Q661 132 625 132H156Q120 132 95.0 157.5Q70 183 70 219V688Q70 723 95.0 748.5Q120 774 156 774ZM180 664H601V243H180ZM289 719V813Q289 848 314.0 873.5Q339 899 375 899H844Q880 899 905.0 873.5Q930 848 930 812V344Q930 308 905.0 282.5Q880 257 844 257H750Q727 257 711.0 273.5Q695 290 695.0 312.5Q695 335 711.0 351.5Q727 368 750 368H820V789H399V719Q399 696 383.0 680.0Q367 664 344.0 664.0Q321 664 305.0 680.0Q289 696 289 719Z"/>
  </g>
</svg>
