<svg xmlns="http://www.w3.org/2000/svg" viewBox="0 -1000 1000 1000">
  <g transform="scale(1,-1) translate(0,-1000)">
    <path d="M188 960H313Q361 960 402.0 936.0Q443 912 467.5 871.0Q492 830 492 781V688Q492 639 467.5 598.0Q443 557 402.0 532.5Q361 508 312 508H188Q139 508 98.0 532.5Q57 557 32.5 598.0Q8 639 8 687V781Q8 830 32.5 871.0Q57 912 98.0 936.0Q139 960 188 960ZM188 852H313Q342 852 362.5 831.5Q383 811 383 781V688Q383 658 362.5 637.5Q342 617 312 617H188Q158 617 137.5 637.5Q117 658 117 688V781Q117 811 137.5 831.5Q158 852 187 852ZM188 832H313Q334 832 349.0 817.0Q364 802 364.0 781.0Q364 760 349.0 745.0Q334 730 312 730H309Q323 721 329.0 705.0Q335 689 330.0 673.0Q325 657 311.5 646.5Q298 636 281 636H188Q169 636 155.0 647.5Q141 659 137.5 677.0Q134 695 142.5 711.0Q151 727 167 734Q151 742 142.5 758.0Q134 774 137.5 791.5Q141 809 155.0 820.5Q169 832 187 832ZM500 742H625Q674 742 715.0 717.5Q756 693 780.0 652.0Q804 611 804 563V469Q804 420 780.0 379.0Q756 338 715.0 314.0Q674 290 625 290H500Q451 290 410.0 314.0Q369 338 345.0 379.0Q321 420 321 469V563Q321 611 345.0 652.0Q369 693 410.0 717.5Q451 742 500 742ZM500 633H625Q654 633 675.0 612.5Q696 592 696 563V469Q696 439 675.0 418.5Q654 398 625 398H500Q471 398 450.0 418.5Q429 439 429 469V563Q429 592 450.0 612.5Q471 633 500 633ZM500 614H625Q646 614 661.0 599.0Q676 584 676.0 562.5Q676 541 661.0 526.0Q646 511 625 511H622Q636 502 641.5 486.0Q647 470 642.5 454.0Q638 438 624.5 428.0Q611 418 594 418H500Q482 418 468.0 429.5Q454 441 450.0 458.5Q446 476 454.5 492.0Q463 508 480 516Q463 523 454.5 539.0Q446 555 450.0 573.0Q454 591 468.0 602.5Q482 614 500 614ZM341 605 435 542Q452 531 456.0 510.0Q460 489 448.5 471.5Q437 454 416.5 450.0Q396 446 378 458L284 520Q267 532 262.5 552.5Q258 573 270.0 590.5Q282 608 302.5 612.5Q323 617 341 605Z"/>
  </g>
</svg>
